<?xml version="1.0" standalone="no"?>
<!DOCTYPE svg PUBLIC "-//W3C//DTD SVG 20010904//EN"
 "http://www.w3.org/TR/2001/REC-SVG-20010904/DTD/svg10.dtd">
<svg version="1.0" xmlns="http://www.w3.org/2000/svg"
 width="225.000000pt" height="225.000000pt" viewBox="0 0 225.000000 225.000000"
 preserveAspectRatio="xMidYMid meet">
<metadata>
Created by potrace 1.14, written by Peter Selinger 2001-2017
</metadata>
<g transform="translate(0.000000,225.000000) scale(0.100000,-0.100000)"
fill="#000000" stroke="none">
<path d="M0 1125 l0 -1125 1125 0 1125 0 0 1125 0 1125 -1125 0 -1125 0 0
-1125z m1518 898 c47 -116 57 -148 45 -140 -5 3 -9 -3 -9 -13 0 -13 4 -16 12
-10 13 12 39 -64 28 -82 -4 -6 -3 -8 3 -5 6 4 17 -19 26 -53 19 -67 22 -114 7
-105 -5 3 -10 0 -10 -7 0 -22 -38 -40 -59 -29 -21 12 -234 17 -250 6 -15 -9
-44 -65 -34 -65 5 0 26 9 47 21 46 24 45 24 259 -29 142 -36 192 -52 158 -52
-7 0 -9 -5 -5 -11 5 -9 -1 -10 -22 -5 -28 7 -28 7 -9 -8 25 -19 47 -20 65 -3
12 10 12 9 1 -5 -15 -19 -41 -23 -56 -9 -24 22 -205 73 -280 78 -80 6 -155
-12 -155 -36 0 -12 102 -25 135 -17 22 6 37 -3 98 -60 71 -66 200 -169 239
-190 11 -7 25 -17 31 -24 12 -12 -22 7 -83 47 -22 14 -38 19 -45 13 -7 -6 -51
20 -125 76 -63 47 -124 87 -135 89 -49 9 -105 12 -105 5 0 -4 17 -20 38 -36
20 -16 48 -39 62 -51 14 -13 35 -26 48 -29 12 -4 22 -7 23 -8 0 0 3 -50 6
-109 3 -73 1 -112 -6 -121 -7 -8 -8 -16 -4 -18 4 -1 5 -23 2 -48 -3 -25 -7
-35 -7 -23 -1 12 -5 28 -8 36 -5 14 -8 13 -25 -1 -10 -9 -19 -23 -19 -31 0
-24 -11 -5 -15 25 -8 64 -9 210 -1 226 8 18 -51 90 -106 129 -42 30 -51 20
-26 -30 20 -41 21 -48 9 -120 -14 -88 -41 -182 -74 -264 -29 -69 -33 -74 -40
-47 -3 11 -1 20 4 20 5 0 9 7 9 15 0 8 -4 15 -10 15 -12 0 -28 -31 -24 -48 1
-7 0 -8 -3 -2 -2 5 -10 7 -15 4 -6 -4 -8 -2 -5 4 9 13 -2 44 -13 37 -12 -7
-23 32 -14 46 4 7 3 9 -4 5 -13 -8 -37 64 -62 185 -19 94 -19 102 15 182 16
38 -28 14 -90 -49 -55 -58 -63 -70 -53 -87 7 -13 8 -71 3 -176 -7 -156 -14
-207 -16 -115 -1 69 -12 100 -32 96 -27 -5 -37 39 -37 163 0 97 2 114 15 109
9 -4 39 15 77 46 35 29 68 55 75 57 22 9 14 24 -9 19 -13 -3 -44 -8 -70 -11
-36 -5 -64 -19 -132 -70 -85 -64 -104 -76 -90 -53 4 7 3 8 -5 4 -6 -4 -9 -11
-6 -16 3 -4 -10 -19 -28 -32 -42 -32 -68 -45 -39 -20 22 20 31 39 12 27 -25
-15 -7 15 22 37 18 14 71 60 118 102 53 48 90 74 99 71 22 -9 151 6 151 17 0
5 -17 16 -37 25 -64 26 -284 -3 -367 -50 -12 -6 -24 -11 -28 -12 -3 0 -10 -3
-14 -7 -11 -11 -24 -10 -24 2 0 6 7 10 15 10 25 0 14 31 -15 44 -8 3 0 4 18 1
18 -2 31 -1 28 3 -3 5 25 14 62 22 37 7 104 23 150 36 100 29 112 29 162 4 22
-11 42 -20 45 -20 11 0 4 26 -13 48 -16 21 -25 22 -134 23 -64 0 -126 -4 -136
-10 -15 -8 -24 -5 -43 15 -30 32 -31 48 -12 114 10 30 17 57 18 60 6 37 31 97
39 93 5 -4 7 1 3 11 -8 20 20 86 35 86 6 0 8 -10 4 -22 -19 -68 -35 -162 -38
-228 l-3 -75 128 0 128 0 39 -32 c21 -18 42 -33 46 -33 4 0 4 3 1 7 -8 7 21
43 34 43 5 0 3 -11 -3 -25 -12 -28 -6 -41 13 -29 17 10 72 9 89 -1 10 -6 12
-1 7 24 -6 29 -5 31 13 21 11 -6 20 -17 20 -25 0 -23 13 -18 50 19 l33 35 134
-6 134 -6 -6 79 c-3 43 -11 101 -16 127 -6 26 -9 57 -6 67 3 13 1 18 -6 13 -6
-4 -8 0 -4 9 6 16 -7 60 -42 141 -22 50 -24 57 -17 57 2 0 22 -44 44 -97z
m158 -45 c19 -38 34 -72 32 -73 -2 -2 -22 32 -44 75 -22 44 -37 77 -32 74 5
-3 24 -37 44 -76z m64 -143 c0 -5 -5 -3 -10 5 -5 8 -10 20 -10 25 0 6 5 3 10
-5 5 -8 10 -19 10 -25z m-1193 -77 c-3 -8 -6 -5 -6 6 -1 11 2 17 5 13 3 -3 4
-12 1 -19z m1239 -82 c-2 -6 -5 -3 -5 6 -1 12 -7 16 -18 12 -13 -4 -14 -3 -5
4 8 5 11 20 7 38 -4 21 -1 18 10 -10 8 -22 13 -45 11 -50z m-1247 41 c0 -21
-1 -21 -9 -2 -12 28 -12 37 0 30 6 -3 10 -16 9 -28z m-13 -29 c4 -7 3 -8 -4
-4 -7 4 -12 1 -12 -8 0 -9 5 -16 10 -16 6 0 10 -11 10 -25 0 -14 -4 -25 -10
-25 -5 0 -7 7 -4 15 4 8 1 22 -6 30 -7 8 -10 22 -6 30 7 18 12 19 22 3z m1271
-60 c-3 -7 -5 -2 -5 12 0 14 2 19 5 13 2 -7 2 -19 0 -25z m10 -55 c-3 -10 -5
-4 -5 12 0 17 2 24 5 18 2 -7 2 -21 0 -30z m-1289 -35 c-1 -51 -2 -51 -5 -10
-2 23 -8 40 -14 37 -10 -7 -13 8 -2 18 16 17 23 3 21 -45z m1305 -33 c5 -28 4
-34 -3 -20 -8 19 -14 73 -6 64 2 -2 6 -22 9 -44z m-148 -285 c3 -5 1 -10 -4
-10 -6 0 -11 5 -11 10 0 6 2 10 4 10 3 0 8 -4 11 -10z m-845 -260 c0 -5 -2
-10 -4 -10 -3 0 -8 5 -11 10 -3 6 -1 10 4 10 6 0 11 -4 11 -10z m617 -172 c-3
-8 -6 -5 -6 6 -1 11 2 17 5 13 3 -3 4 -12 1 -19z"/>
<path d="M1676 1471 c-3 -4 6 -8 20 -9 13 -1 24 0 24 2 0 7 -40 14 -44 7z"/>
<path d="M1613 1265 c0 -8 4 -12 9 -9 5 3 6 10 3 15 -9 13 -12 11 -12 -6z"/>
<path d="M610 1250 c0 -5 4 -10 9 -10 6 0 13 5 16 10 3 6 -1 10 -9 10 -9 0
-16 -4 -16 -10z"/>
</g>
</svg>
